<svg xmlns="http://www.w3.org/2000/svg" width="300" height="300" viewBox="0 0 300 300">
  <defs>
    <style>
      .cls-1 {
        fill: #fff;
        fill-rule: evenodd;
      }
    </style>
  </defs>
  <path id="_" data-name="$" class="cls-1" d="M150.928,288.28l7.837-44.547h19.386c72.183,0,97.756-32.173,97.756-74.245,0-29.7-22.273-44.96-64.758-44.96H179.8l3.3-18.974h56.1l52.8-56.509H193l6.6-36.71H162.064l-6.6,36.71H137.316c-70.946,0-97.344,31.348-97.344,70.946,0,28.048,19.8,48.259,63.934,48.259h30.523l-3.713,19.8h-66L11.1,243.733h110.13l-7.837,44.547h37.536ZM197.95,168.25c8.249,0,12.374,2.475,12.374,7.837,0,7.837-4.95,11.962-15.674,11.962h-26.4l3.712-19.8H197.95Zm-55.684-43.722H118.342c-9.487,0-13.611-3.3-13.611-7.837,0-6.6,4.949-11.137,17.323-11.137h23.511Z"/>
</svg>
